<?xml version="1.0" standalone="no"?>
<!DOCTYPE svg PUBLIC "-//W3C//DTD SVG 1.1//EN" 
  "http://www.w3.org/Graphics/SVG/1.1/DTD/svg11.dtd">
<svg width="1024" height="1024" viewBox="0 0 1024 1024"
     xmlns="http://www.w3.org/2000/svg" version="1.1">
<desc>yacht-tray.blend, (Blender 3.6.20)</desc>
<polygon stroke="black" stroke-width="1" fill="rgb(204, 204, 204)" fill-opacity="0.25" points="856.226,278.148 679.774,278.148 678.446,278.187 677.444,278.275 676.449,278.420 675.464,278.624 674.492,278.884 673.537,279.201 672.602,279.572 671.691,279.997 670.805,280.475 669.949,281.003 669.125,281.580 668.336,282.204 667.584,282.873 666.873,283.584 666.204,284.336 665.580,285.125 665.003,285.949 664.475,286.805 663.997,287.690 663.572,288.602 663.201,289.537 662.884,290.492 662.624,291.464 662.421,292.449 662.275,293.444 662.187,294.446 662.149,295.774 662.148,472.225 873.851,472.225 873.852,295.774 873.813,294.446 873.725,293.444 873.580,292.449 873.376,291.464 873.115,290.492 872.799,289.537 872.428,288.602 872.003,287.690 871.525,286.805 870.997,285.949 870.420,285.125 869.796,284.335 869.127,283.584 868.416,282.872 867.665,282.204 866.875,281.580 866.051,281.003 865.195,280.475 864.310,279.997 863.398,279.572 862.463,279.201 861.508,278.884 860.536,278.624 859.551,278.421 858.556,278.275 857.553,278.187 " />

</svg>
