<?xml version="1.0" encoding="UTF-8"?>
<!-- 2023-09-03 17:57:35 Generated by QCAD 3.27.1 SVG Exporter -->
<svg width="190.4988mm" height="135.5mm" viewBox="10 -270 190.4988 135.5" version="1.1" xmlns="http://www.w3.org/2000/svg" style="stroke-linecap:round;stroke-linejoin:round;fill:none">
    <g transform="scale(1,-1)">
        <!-- Rotated Dimension -->
        <g>
            <g>
                <path d="M137.8611,209.6111 L136.75,210.7222 L141.75,210.7222 M137.8611,212.3889 L136.75,213.5 L141.75,213.5 M136.75,215.1667 L136.75,216.2778 C136.75,216.3324 136.7607,216.441 136.7713,216.4945 C136.782,216.5481 136.8137,216.6526 136.8346,216.703 C136.8555,216.7534 136.9069,216.8497 136.9373,216.8951 C136.9676,216.9405 137.0368,217.0249 137.0754,217.0635 C137.114,217.102 137.1984,217.1713 137.2438,217.2016 C137.2892,217.232 137.3855,217.2834 137.4359,217.3043 C137.4863,217.3252 137.5908,217.3569 137.6443,217.3675 C137.6979,217.3782 137.8065,217.3889 137.8611,217.3889 C137.9157,217.3889 138.0243,217.3782 138.0779,217.3675 C138.1314,217.3569 138.2359,217.3252 138.2863,217.3043 C138.3367,217.2834 138.433,217.232 138.4784,217.2016 C138.5238,217.1713 138.6082,217.102 138.6468,217.0635 C138.6854,217.0249 138.7546,216.9405 138.785,216.8951 C138.8153,216.8497 138.8668,216.7534 138.8876,216.703 C138.9085,216.6526 138.9402,216.5481 138.9509,216.4945 C138.9615,216.441 138.9722,216.3324 138.9722,216.2778 C138.9722,216.3324 138.9829,216.441 138.9936,216.4945 C139.0042,216.548 139.0359,216.6525 139.0568,216.7029 C139.0777,216.7534 139.1291,216.8497 139.1595,216.895 C139.1898,216.9404 139.2591,217.0248 139.2976,217.0634 C139.3362,217.102 139.4206,217.1713 139.466,217.2016 C139.5114,217.2319 139.6077,217.2834 139.6581,217.3043 C139.7086,217.3252 139.813,217.3569 139.8666,217.3675 C139.9201,217.3782 140.0287,217.3889 140.0833,217.3889 L140.6389,217.3889 C140.6935,217.3889 140.8021,217.3782 140.8556,217.3675 C140.9091,217.3569 141.0136,217.3252 141.0641,217.3043 C141.1145,217.2834 141.2108,217.232 141.2562,217.2016 C141.3015,217.1713 141.3859,217.1021 141.4245,217.0635 C141.4631,217.0249 141.5324,216.9405 141.5627,216.8951 C141.5931,216.8497 141.6445,216.7534 141.6654,216.703 C141.6863,216.6526 141.718,216.5481 141.7286,216.4945 C141.7393,216.441 141.75,216.3324 141.75,216.2778 L141.75,215.1667 M138.9722,216.2778 L138.9722,215.7222" style="stroke:#00ff00;stroke-width:0.25;"/>
            </g>
            <path d="M143,270 L143.8326,265 L142.1674,265 Z" style="stroke:#00ff00;stroke-width:0.25;fill:#00ff00;fill-rule:evenodd;"/>
            <path d="M143,157 L142.1674,162 L143.8326,162 Z" style="stroke:#00ff00;stroke-width:0.25;fill:#00ff00;fill-rule:evenodd;"/>
        </g>
        <path d="M143,270 L143,157 M124.25,270 L145.5,270 M115.25,157 L145.5,157 " style="stroke:#00ff00;stroke-width:0.25;"/>
        <!-- Rotated Dimension -->
        <g>
            <g>
                <path d="M62.6111,142.1389 L63.7222,143.25 L63.7222,138.25 M65.3889,142.1389 L66.5,143.25 L66.5,138.25 M68.1667,143.25 L69.2778,143.25 C69.3324,143.25 69.441,143.2393 69.4945,143.2287 C69.5481,143.218 69.6526,143.1863 69.703,143.1654 C69.7534,143.1445 69.8497,143.0931 69.8951,143.0627 C69.9405,143.0324 70.0249,142.9632 70.0635,142.9246 C70.102,142.886 70.1713,142.8016 70.2016,142.7562 C70.232,142.7108 70.2834,142.6145 70.3043,142.5641 C70.3252,142.5137 70.3569,142.4092 70.3675,142.3557 C70.3782,142.3021 70.3889,142.1935 70.3889,142.1389 C70.3889,142.0843 70.3782,141.9757 70.3675,141.9221 C70.3569,141.8686 70.3252,141.7641 70.3043,141.7137 C70.2834,141.6633 70.232,141.567 70.2016,141.5216 C70.1713,141.4762 70.102,141.3918 70.0635,141.3532 C70.0249,141.3146 69.9405,141.2454 69.8951,141.215 C69.8497,141.1847 69.7534,141.1332 69.703,141.1124 C69.6526,141.0915 69.5481,141.0598 69.4945,141.0491 C69.441,141.0385 69.3324,141.0278 69.2778,141.0278 C69.3324,141.0278 69.441,141.0171 69.4945,141.0064 C69.548,140.9958 69.6525,140.9641 69.7029,140.9432 C69.7534,140.9223 69.8497,140.8709 69.895,140.8405 C69.9404,140.8102 70.0248,140.7409 70.0634,140.7024 C70.102,140.6638 70.1713,140.5794 70.2016,140.534 C70.2319,140.4886 70.2834,140.3923 70.3043,140.3419 C70.3252,140.2914 70.3569,140.187 70.3675,140.1334 C70.3782,140.0799 70.3889,139.9713 70.3889,139.9167 L70.3889,139.3611 C70.3889,139.3065 70.3782,139.1979 70.3675,139.1444 C70.3569,139.0909 70.3252,138.9864 70.3043,138.9359 C70.2834,138.8855 70.232,138.7892 70.2016,138.7438 C70.1713,138.6985 70.1021,138.6141 70.0635,138.5755 C70.0249,138.5369 69.9405,138.4676 69.8951,138.4373 C69.8497,138.4069 69.7534,138.3555 69.703,138.3346 C69.6526,138.3137 69.5481,138.282 69.4945,138.2714 C69.441,138.2607 69.3324,138.25 69.2778,138.25 L68.1667,138.25 M69.2778,141.0278 L68.7222,141.0278" style="stroke:#00ff00;stroke-width:0.25;"/>
            </g>
            <path d="M10,137 L15,137.8326 L15,136.1674 Z" style="stroke:#00ff00;stroke-width:0.25;fill:#00ff00;fill-rule:evenodd;"/>
            <path d="M123,137 L118,136.1674 L118,137.8326 Z" style="stroke:#00ff00;stroke-width:0.25;fill:#00ff00;fill-rule:evenodd;"/>
        </g>
        <path d="M10,137 L123,137 M10,164.75 L10,134.5 M123,164.75 L123,134.5 " style="stroke:#00ff00;stroke-width:0.25;"/>
        <!-- Hatch -->
        <path d="M10,270 L10,166 A9,9 0 0 1 19,157 L114,157 A9,9 0 0 1 123,166 L123,270 Z" style="fill:#000000;fill-rule:evenodd;"/>
        <!-- Text: NOTE:
RADIUS: 10 MM -->
        <g>
            <path d="M150,208.4113 L150,213.4113 L150.6787,213.4113 L153.3049,209.4857 L153.3049,213.4113 L153.9393,213.4113 L153.9393,208.4113 L153.2606,208.4113 L150.6344,212.3404 L150.6344,208.4113 Z M154.8666,210.8465 C154.8666,211.6764 155.0894,212.3262 155.5351,212.7957 C155.9807,213.2652 156.556,213.5 157.2608,213.5 C157.7224,213.5 158.1385,213.3897 158.5091,213.1692 C158.8798,212.9486 159.1623,212.6411 159.3567,212.2466 C159.5511,211.8521 159.6483,211.4047 159.6483,210.9045 C159.6483,210.3975 159.546,209.9438 159.3413,209.5437 C159.1367,209.1435 158.8468,208.8405 158.4716,208.6347 C158.0965,208.4289 157.6917,208.3261 157.2574,208.3261 C156.7868,208.3261 156.3661,208.4397 155.9955,208.6671 C155.6249,208.8945 155.3441,209.2049 155.1531,209.5982 C154.9621,209.9916 154.8666,210.4077 154.8666,210.8465 M155.5487,210.8363 C155.5487,210.2337 155.7107,209.7591 156.0347,209.4123 C156.3587,209.0656 156.7652,208.8922 157.254,208.8922 C157.752,208.8922 158.1618,209.0673 158.4836,209.4175 C158.8053,209.7676 158.9662,210.2644 158.9662,210.9079 C158.9662,211.3149 158.8974,211.6702 158.7598,211.9737 C158.6223,212.2773 158.421,212.5126 158.1561,212.6797 C157.8912,212.8469 157.594,212.9304 157.2643,212.9304 C156.7959,212.9304 156.3928,212.7696 156.0552,212.4478 C155.7175,212.1261 155.5487,211.5889 155.5487,210.8363 M161.7774,208.4113 L161.7774,212.8213 L160.1301,212.8213 L160.1301,213.4113 L164.0932,213.4113 L164.0932,212.8213 L162.4391,212.8213 L162.4391,208.4113 Z M164.7852,208.4113 L164.7852,213.4113 L168.4004,213.4113 L168.4004,212.8213 L165.4468,212.8213 L165.4468,211.2899 L168.2128,211.2899 L168.2128,210.7033 L165.4468,210.7033 L165.4468,209.0014 L168.5164,209.0014 L168.5164,208.4113 Z M169.5063,211.3342 L169.5063,212.0334 L170.2055,212.0334 L170.2055,211.3342 Z M169.5063,208.4113 L169.5063,209.1105 L170.2055,209.1105 L170.2055,208.4113 Z" style="fill:#000000;fill-rule:evenodd;"/>
            <path d="M150,200.6674 L150,205.6674 L152.2169,205.6674 C152.6626,205.6674 153.0014,205.6225 153.2333,205.5327 C153.4652,205.4429 153.6505,205.2843 153.7892,205.0569 C153.9279,204.8295 153.9973,204.5783 153.9973,204.3031 C153.9973,203.9484 153.8824,203.6494 153.6528,203.4061 C153.4231,203.1628 153.0684,203.0082 152.5887,202.9423 C152.7638,202.8582 152.8968,202.7752 152.9877,202.6933 C153.181,202.516 153.364,202.2943 153.5368,202.0282 L154.4065,200.6674 L153.5744,200.6674 L152.9127,201.7076 C152.7194,202.0078 152.5603,202.2374 152.4352,202.3966 C152.3101,202.5557 152.1982,202.6672 152.0992,202.7308 C152.0003,202.7945 151.8997,202.8388 151.7974,202.8638 C151.7224,202.8798 151.5996,202.8877 151.4291,202.8877 L150.6617,202.8877 L150.6617,200.6674 Z M150.6617,203.4607 L152.0839,203.4607 C152.3863,203.4607 152.6228,203.492 152.7933,203.5545 C152.9638,203.617 153.0935,203.7171 153.1821,203.8546 C153.2708,203.9922 153.3151,204.1417 153.3151,204.3031 C153.3151,204.5396 153.2293,204.734 153.0576,204.8864 C152.886,205.0387 152.6148,205.1149 152.2442,205.1149 L150.6617,205.1149 Z M154.5016,200.6674 L156.4218,205.6674 L157.1347,205.6674 L159.181,200.6674 L158.4273,200.6674 L157.8441,202.1817 L155.7533,202.1817 L155.2042,200.6674 Z M155.9443,202.7206 L157.6394,202.7206 L157.1176,204.1053 C156.9584,204.526 156.8402,204.8716 156.7629,205.1422 C156.6992,204.8216 156.6094,204.5032 156.4935,204.1872 Z M159.6935,200.6674 L159.6935,205.6674 L161.4158,205.6674 C161.8047,205.6674 162.1014,205.6435 162.306,205.5958 C162.5925,205.5298 162.8369,205.4105 163.0393,205.2377 C163.3031,205.0148 163.5003,204.73 163.6311,204.3833 C163.7618,204.0365 163.8272,203.6403 163.8272,203.1947 C163.8272,202.815 163.7828,202.4784 163.6942,202.1851 C163.6055,201.8918 163.4918,201.6491 163.3531,201.457 C163.2144,201.2648 163.0626,201.1136 162.8978,201.0033 C162.7329,200.8931 162.534,200.8095 162.3009,200.7527 C162.0678,200.6958 161.8001,200.6674 161.4977,200.6674 Z M160.3551,201.2574 L161.4227,201.2574 C161.7524,201.2574 162.011,201.2881 162.1986,201.3495 C162.3862,201.4109 162.5357,201.4973 162.6471,201.6087 C162.804,201.7656 162.9262,201.9765 163.0137,202.2414 C163.1013,202.5063 163.145,202.8275 163.145,203.2049 C163.145,203.7279 163.0592,204.1298 162.8875,204.4106 C162.7159,204.6914 162.5073,204.8795 162.2617,204.975 C162.0843,205.0432 161.799,205.0774 161.4056,205.0774 L160.3551,205.0774 Z M164.867,200.6674 L164.867,205.6674 L165.5287,205.6674 L165.5287,200.6674 Z M169.9595,205.6674 L170.6212,205.6674 L170.6212,202.7786 C170.6212,202.2761 170.5643,201.877 170.4506,201.5814 C170.3369,201.2859 170.1317,201.0454 169.835,200.8601 C169.5383,200.6748 169.1489,200.5821 168.6669,200.5821 C168.1985,200.5821 167.8153,200.6628 167.5175,200.8243 C167.2196,200.9857 167.007,201.2193 166.8797,201.5252 C166.7524,201.831 166.6887,202.2488 166.6887,202.7786 L166.6887,205.6674 L167.3504,205.6674 L167.3504,202.782 C167.3504,202.3477 167.3907,202.0277 167.4714,201.8219 C167.5522,201.6161 167.6909,201.4575 167.8875,201.3461 C168.0842,201.2347 168.3247,201.179 168.6089,201.179 C169.0955,201.179 169.4422,201.2893 169.6491,201.5098 C169.856,201.7304 169.9595,202.1544 169.9595,202.782 Z M171.5143,202.2738 L172.1385,202.3284 C172.1681,202.0783 172.2368,201.8731 172.3448,201.7128 C172.4528,201.5525 172.6205,201.4228 172.8479,201.3239 C173.0753,201.225 173.3311,201.1756 173.6153,201.1756 C173.8677,201.1756 174.0905,201.2131 174.2838,201.2881 C174.4771,201.3632 174.6209,201.466 174.7152,201.5968 C174.8096,201.7275 174.8568,201.8702 174.8568,202.0248 C174.8568,202.1817 174.8113,202.3187 174.7203,202.4358 C174.6294,202.5529 174.4793,202.6512 174.2701,202.7308 C174.136,202.7831 173.8393,202.8644 173.38,202.9747 C172.9207,203.085 172.5989,203.189 172.4148,203.2868 C172.176,203.4118 171.9981,203.567 171.881,203.7523 C171.7639,203.9376 171.7053,204.1451 171.7053,204.3748 C171.7053,204.6271 171.777,204.863 171.9202,205.0825 C172.0635,205.3019 172.2726,205.4684 172.5478,205.5821 C172.8229,205.6958 173.1287,205.7527 173.4652,205.7527 C173.8359,205.7527 174.1627,205.693 174.4458,205.5736 C174.7289,205.4542 174.9466,205.2786 175.0989,205.0467 C175.2513,204.8147 175.3331,204.5521 175.3445,204.2588 L174.7101,204.211 C174.676,204.5271 174.5606,204.7658 174.3639,204.9273 C174.1673,205.0887 173.8768,205.1694 173.4925,205.1694 C173.0923,205.1694 172.8007,205.0961 172.6177,204.9495 C172.4346,204.8028 172.3431,204.626 172.3431,204.4191 C172.3431,204.2395 172.4079,204.0917 172.5375,203.9757 C172.6649,203.8598 172.9974,203.7409 173.5352,203.6193 C174.0729,203.4977 174.4418,203.3914 174.6419,203.3004 C174.9329,203.1663 175.1478,202.9963 175.2865,202.7905 C175.4252,202.5847 175.4946,202.3477 175.4946,202.0794 C175.4946,201.8134 175.4184,201.5627 175.2661,201.3274 C175.1137,201.092 174.8949,200.909 174.6095,200.7782 C174.3241,200.6475 174.003,200.5821 173.646,200.5821 C173.1935,200.5821 172.8144,200.6481 172.5085,200.7799 C172.2027,200.9118 171.9628,201.1102 171.7889,201.3751 C171.615,201.64 171.5234,201.9396 171.5143,202.2738 M176.4743,203.5903 L176.4743,204.2895 L177.1734,204.2895 L177.1734,203.5903 Z M176.4743,200.6674 L176.4743,201.3666 L177.1734,201.3666 L177.1734,200.6674 Z M182.2936,200.6674 L181.6797,200.6674 L181.6797,204.5794 C181.5319,204.4384 181.3381,204.2975 181.0982,204.1565 C180.8583,204.0155 180.6429,203.9098 180.4519,203.8393 L180.4519,204.4327 C180.7952,204.5942 181.0954,204.7897 181.3523,205.0194 C181.6092,205.249 181.7911,205.4718 181.898,205.6879 L182.2936,205.6879 Z M183.8711,203.1333 C183.8711,203.7245 183.9319,204.2002 184.0535,204.5606 C184.1752,204.921 184.3559,205.199 184.5958,205.3945 C184.8357,205.5901 185.1375,205.6879 185.5013,205.6879 C185.7696,205.6879 186.005,205.6339 186.2073,205.5258 C186.4097,205.4178 186.5768,205.2621 186.7087,205.0586 C186.8406,204.8551 186.944,204.6073 187.0191,204.3151 C187.0941,204.0229 187.1316,203.629 187.1316,203.1333 C187.1316,202.5467 187.0714,202.0731 186.9509,201.7128 C186.8304,201.3524 186.6502,201.0738 186.4103,200.8771 C186.1704,200.6805 185.8674,200.5821 185.5013,200.5821 C185.0193,200.5821 184.6407,200.7549 184.3656,201.1005 C184.0359,201.5166 183.8711,202.1942 183.8711,203.1333 M184.502,203.1333 C184.502,202.3125 184.5981,201.7662 184.7902,201.4945 C184.9824,201.2228 185.2194,201.0869 185.5013,201.0869 C185.7833,201.0869 186.0203,201.2233 186.2125,201.4962 C186.4046,201.769 186.5007,202.3147 186.5007,203.1333 C186.5007,203.9564 186.4046,204.5032 186.2125,204.7738 C186.0203,205.0444 185.781,205.1797 185.4945,205.1797 C185.2126,205.1797 184.9875,205.0603 184.8192,204.8216 C184.6078,204.5169 184.502,203.9541 184.502,203.1333 M189.9134,200.6674 L189.9134,205.6674 L190.9093,205.6674 L192.0928,202.1271 C192.202,201.7975 192.2815,201.5507 192.3316,201.387 C192.3884,201.5689 192.4771,201.8361 192.5976,202.1885 L193.7947,205.6674 L194.6849,205.6674 L194.6849,200.6674 L194.0471,200.6674 L194.0471,204.8522 L192.5942,200.6674 L191.9973,200.6674 L190.5512,204.9239 L190.5512,200.6674 Z M195.7273,200.6674 L195.7273,205.6674 L196.7232,205.6674 L197.9067,202.1271 C198.0158,201.7975 198.0954,201.5507 198.1454,201.387 C198.2023,201.5689 198.2909,201.8361 198.4115,202.1885 L199.6086,205.6674 L200.4988,205.6674 L200.4988,200.6674 L199.861,200.6674 L199.861,204.8522 L198.408,200.6674 L197.8112,200.6674 L196.3651,204.9239 L196.3651,200.6674 Z" style="fill:#000000;fill-rule:evenodd;"/>
        </g>
    </g>
</svg>
